<svg xmlns="http://www.w3.org/2000/svg" version="1.1" xmlns:xlink="http://www.w3.org/1999/xlink" xmlns:svgjs="http://svgjs.dev/svgjs" viewBox="0 0 800 800" width="800" height="800"><g stroke-width="2.25" stroke="hsla(0, 63%, 45%, 1.00)" fill="none"><line x1="72.72727272727273" y1="0" x2="0" y2="72.72727272727273"></line><line x1="145.45454545454547" y1="0" x2="72.72727272727273" y2="72.72727272727273"></line><line x1="218.1818181818182" y1="0" x2="145.45454545454547" y2="72.72727272727273"></line><line x1="290.90909090909093" y1="0" x2="218.1818181818182" y2="72.72727272727273"></line><line x1="363.6363636363637" y1="0" x2="290.90909090909093" y2="72.72727272727273"></line><line x1="436.36363636363643" y1="0" x2="363.6363636363637" y2="72.72727272727273"></line><line x1="509.0909090909092" y1="0" x2="436.36363636363643" y2="72.72727272727273"></line><line x1="581.8181818181819" y1="0" x2="509.0909090909092" y2="72.72727272727273"></line><line x1="654.5454545454546" y1="0" x2="581.8181818181819" y2="72.72727272727273"></line><line x1="727.2727272727274" y1="0" x2="654.5454545454546" y2="72.72727272727273"></line><line x1="800.0000000000001" y1="0" x2="727.2727272727274" y2="72.72727272727273"></line><line x1="872.7272727272729" y1="0" x2="800.0000000000001" y2="72.72727272727273"></line><line x1="72.72727272727273" y1="47.05882352941177" x2="0" y2="119.7860962566845"></line><line x1="145.45454545454547" y1="47.05882352941177" x2="72.72727272727273" y2="119.7860962566845"></line><line x1="218.1818181818182" y1="47.05882352941177" x2="145.45454545454547" y2="119.7860962566845"></line><line x1="290.90909090909093" y1="47.05882352941177" x2="218.1818181818182" y2="119.7860962566845"></line><line x1="363.6363636363637" y1="47.05882352941177" x2="290.90909090909093" y2="119.7860962566845"></line><line x1="436.36363636363643" y1="47.05882352941177" x2="363.6363636363637" y2="119.7860962566845"></line><line x1="509.0909090909092" y1="47.05882352941177" x2="436.36363636363643" y2="119.7860962566845"></line><line x1="581.8181818181819" y1="47.05882352941177" x2="509.0909090909092" y2="119.7860962566845"></line><line x1="654.5454545454546" y1="47.05882352941177" x2="581.8181818181819" y2="119.7860962566845"></line><line x1="727.2727272727274" y1="47.05882352941177" x2="654.5454545454546" y2="119.7860962566845"></line><line x1="800.0000000000001" y1="47.05882352941177" x2="727.2727272727274" y2="119.7860962566845"></line><line x1="872.7272727272729" y1="47.05882352941177" x2="800.0000000000001" y2="119.7860962566845"></line><line x1="72.72727272727273" y1="94.11764705882354" x2="0" y2="166.84491978609628"></line><line x1="145.45454545454547" y1="94.11764705882354" x2="72.72727272727273" y2="166.84491978609628"></line><line x1="218.1818181818182" y1="94.11764705882354" x2="145.45454545454547" y2="166.84491978609628"></line><line x1="290.90909090909093" y1="94.11764705882354" x2="218.1818181818182" y2="166.84491978609628"></line><line x1="363.6363636363637" y1="94.11764705882354" x2="290.90909090909093" y2="166.84491978609628"></line><line x1="436.36363636363643" y1="94.11764705882354" x2="363.6363636363637" y2="166.84491978609628"></line><line x1="509.0909090909092" y1="94.11764705882354" x2="436.36363636363643" y2="166.84491978609628"></line><line x1="581.8181818181819" y1="94.11764705882354" x2="509.0909090909092" y2="166.84491978609628"></line><line x1="654.5454545454546" y1="94.11764705882354" x2="581.8181818181819" y2="166.84491978609628"></line><line x1="727.2727272727274" y1="94.11764705882354" x2="654.5454545454546" y2="166.84491978609628"></line><line x1="800.0000000000001" y1="94.11764705882354" x2="727.2727272727274" y2="166.84491978609628"></line><line x1="872.7272727272729" y1="94.11764705882354" x2="800.0000000000001" y2="166.84491978609628"></line><line x1="72.72727272727273" y1="141.1764705882353" x2="0" y2="213.90374331550805"></line><line x1="145.45454545454547" y1="141.1764705882353" x2="72.72727272727273" y2="213.90374331550805"></line><line x1="218.1818181818182" y1="141.1764705882353" x2="145.45454545454547" y2="213.90374331550805"></line><line x1="290.90909090909093" y1="141.1764705882353" x2="218.1818181818182" y2="213.90374331550805"></line><line x1="363.6363636363637" y1="141.1764705882353" x2="290.90909090909093" y2="213.90374331550805"></line><line x1="436.36363636363643" y1="141.1764705882353" x2="363.6363636363637" y2="213.90374331550805"></line><line x1="509.0909090909092" y1="141.1764705882353" x2="436.36363636363643" y2="213.90374331550805"></line><line x1="581.8181818181819" y1="141.1764705882353" x2="509.0909090909092" y2="213.90374331550805"></line><line x1="654.5454545454546" y1="141.1764705882353" x2="581.8181818181819" y2="213.90374331550805"></line><line x1="727.2727272727274" y1="141.1764705882353" x2="654.5454545454546" y2="213.90374331550805"></line><line x1="800.0000000000001" y1="141.1764705882353" x2="727.2727272727274" y2="213.90374331550805"></line><line x1="872.7272727272729" y1="141.1764705882353" x2="800.0000000000001" y2="213.90374331550805"></line><line x1="72.72727272727273" y1="188.23529411764707" x2="0" y2="260.9625668449198"></line><line x1="145.45454545454547" y1="188.23529411764707" x2="72.72727272727273" y2="260.9625668449198"></line><line x1="218.1818181818182" y1="188.23529411764707" x2="145.45454545454547" y2="260.9625668449198"></line><line x1="290.90909090909093" y1="188.23529411764707" x2="218.1818181818182" y2="260.9625668449198"></line><line x1="363.6363636363637" y1="188.23529411764707" x2="290.90909090909093" y2="260.9625668449198"></line><line x1="436.36363636363643" y1="188.23529411764707" x2="363.6363636363637" y2="260.9625668449198"></line><line x1="509.0909090909092" y1="188.23529411764707" x2="436.36363636363643" y2="260.9625668449198"></line><line x1="581.8181818181819" y1="188.23529411764707" x2="509.0909090909092" y2="260.9625668449198"></line><line x1="654.5454545454546" y1="188.23529411764707" x2="581.8181818181819" y2="260.9625668449198"></line><line x1="727.2727272727274" y1="188.23529411764707" x2="654.5454545454546" y2="260.9625668449198"></line><line x1="800.0000000000001" y1="188.23529411764707" x2="727.2727272727274" y2="260.9625668449198"></line><line x1="872.7272727272729" y1="188.23529411764707" x2="800.0000000000001" y2="260.9625668449198"></line><line x1="72.72727272727273" y1="235.29411764705884" x2="0" y2="308.0213903743316"></line><line x1="145.45454545454547" y1="235.29411764705884" x2="72.72727272727273" y2="308.0213903743316"></line><line x1="218.1818181818182" y1="235.29411764705884" x2="145.45454545454547" y2="308.0213903743316"></line><line x1="290.90909090909093" y1="235.29411764705884" x2="218.1818181818182" y2="308.0213903743316"></line><line x1="363.6363636363637" y1="235.29411764705884" x2="290.90909090909093" y2="308.0213903743316"></line><line x1="436.36363636363643" y1="235.29411764705884" x2="363.6363636363637" y2="308.0213903743316"></line><line x1="509.0909090909092" y1="235.29411764705884" x2="436.36363636363643" y2="308.0213903743316"></line><line x1="581.8181818181819" y1="235.29411764705884" x2="509.0909090909092" y2="308.0213903743316"></line><line x1="654.5454545454546" y1="235.29411764705884" x2="581.8181818181819" y2="308.0213903743316"></line><line x1="727.2727272727274" y1="235.29411764705884" x2="654.5454545454546" y2="308.0213903743316"></line><line x1="800.0000000000001" y1="235.29411764705884" x2="727.2727272727274" y2="308.0213903743316"></line><line x1="872.7272727272729" y1="235.29411764705884" x2="800.0000000000001" y2="308.0213903743316"></line><line x1="72.72727272727273" y1="282.3529411764706" x2="0" y2="355.08021390374336"></line><line x1="145.45454545454547" y1="282.3529411764706" x2="72.72727272727273" y2="355.08021390374336"></line><line x1="218.1818181818182" y1="282.3529411764706" x2="145.45454545454547" y2="355.08021390374336"></line><line x1="290.90909090909093" y1="282.3529411764706" x2="218.1818181818182" y2="355.08021390374336"></line><line x1="363.6363636363637" y1="282.3529411764706" x2="290.90909090909093" y2="355.08021390374336"></line><line x1="436.36363636363643" y1="282.3529411764706" x2="363.6363636363637" y2="355.08021390374336"></line><line x1="509.0909090909092" y1="282.3529411764706" x2="436.36363636363643" y2="355.08021390374336"></line><line x1="581.8181818181819" y1="282.3529411764706" x2="509.0909090909092" y2="355.08021390374336"></line><line x1="654.5454545454546" y1="282.3529411764706" x2="581.8181818181819" y2="355.08021390374336"></line><line x1="727.2727272727274" y1="282.3529411764706" x2="654.5454545454546" y2="355.08021390374336"></line><line x1="800.0000000000001" y1="282.3529411764706" x2="727.2727272727274" y2="355.08021390374336"></line><line x1="872.7272727272729" y1="282.3529411764706" x2="800.0000000000001" y2="355.08021390374336"></line><line x1="72.72727272727273" y1="329.4117647058824" x2="0" y2="402.1390374331551"></line><line x1="145.45454545454547" y1="329.4117647058824" x2="72.72727272727273" y2="402.1390374331551"></line><line x1="218.1818181818182" y1="329.4117647058824" x2="145.45454545454547" y2="402.1390374331551"></line><line x1="290.90909090909093" y1="329.4117647058824" x2="218.1818181818182" y2="402.1390374331551"></line><line x1="363.6363636363637" y1="329.4117647058824" x2="290.90909090909093" y2="402.1390374331551"></line><line x1="436.36363636363643" y1="329.4117647058824" x2="363.6363636363637" y2="402.1390374331551"></line><line x1="509.0909090909092" y1="329.4117647058824" x2="436.36363636363643" y2="402.1390374331551"></line><line x1="581.8181818181819" y1="329.4117647058824" x2="509.0909090909092" y2="402.1390374331551"></line><line x1="654.5454545454546" y1="329.4117647058824" x2="581.8181818181819" y2="402.1390374331551"></line><line x1="727.2727272727274" y1="329.4117647058824" x2="654.5454545454546" y2="402.1390374331551"></line><line x1="800.0000000000001" y1="329.4117647058824" x2="727.2727272727274" y2="402.1390374331551"></line><line x1="872.7272727272729" y1="329.4117647058824" x2="800.0000000000001" y2="402.1390374331551"></line><line x1="72.72727272727273" y1="376.47058823529414" x2="0" y2="449.1978609625669"></line><line x1="145.45454545454547" y1="376.47058823529414" x2="72.72727272727273" y2="449.1978609625669"></line><line x1="218.1818181818182" y1="376.47058823529414" x2="145.45454545454547" y2="449.1978609625669"></line><line x1="290.90909090909093" y1="376.47058823529414" x2="218.1818181818182" y2="449.1978609625669"></line><line x1="363.6363636363637" y1="376.47058823529414" x2="290.90909090909093" y2="449.1978609625669"></line><line x1="436.36363636363643" y1="376.47058823529414" x2="363.6363636363637" y2="449.1978609625669"></line><line x1="509.0909090909092" y1="376.47058823529414" x2="436.36363636363643" y2="449.1978609625669"></line><line x1="581.8181818181819" y1="376.47058823529414" x2="509.0909090909092" y2="449.1978609625669"></line><line x1="654.5454545454546" y1="376.47058823529414" x2="581.8181818181819" y2="449.1978609625669"></line><line x1="727.2727272727274" y1="376.47058823529414" x2="654.5454545454546" y2="449.1978609625669"></line><line x1="800.0000000000001" y1="376.47058823529414" x2="727.2727272727274" y2="449.1978609625669"></line><line x1="872.7272727272729" y1="376.47058823529414" x2="800.0000000000001" y2="449.1978609625669"></line><line x1="72.72727272727273" y1="423.5294117647059" x2="0" y2="496.25668449197866"></line><line x1="145.45454545454547" y1="423.5294117647059" x2="72.72727272727273" y2="496.25668449197866"></line><line x1="218.1818181818182" y1="423.5294117647059" x2="145.45454545454547" y2="496.25668449197866"></line><line x1="290.90909090909093" y1="423.5294117647059" x2="218.1818181818182" y2="496.25668449197866"></line><line x1="363.6363636363637" y1="423.5294117647059" x2="290.90909090909093" y2="496.25668449197866"></line><line x1="436.36363636363643" y1="423.5294117647059" x2="363.6363636363637" y2="496.25668449197866"></line><line x1="509.0909090909092" y1="423.5294117647059" x2="436.36363636363643" y2="496.25668449197866"></line><line x1="581.8181818181819" y1="423.5294117647059" x2="509.0909090909092" y2="496.25668449197866"></line><line x1="654.5454545454546" y1="423.5294117647059" x2="581.8181818181819" y2="496.25668449197866"></line><line x1="727.2727272727274" y1="423.5294117647059" x2="654.5454545454546" y2="496.25668449197866"></line><line x1="800.0000000000001" y1="423.5294117647059" x2="727.2727272727274" y2="496.25668449197866"></line><line x1="872.7272727272729" y1="423.5294117647059" x2="800.0000000000001" y2="496.25668449197866"></line><line x1="72.72727272727273" y1="470.5882352941177" x2="0" y2="543.3155080213904"></line><line x1="145.45454545454547" y1="470.5882352941177" x2="72.72727272727273" y2="543.3155080213904"></line><line x1="218.1818181818182" y1="470.5882352941177" x2="145.45454545454547" y2="543.3155080213904"></line><line x1="290.90909090909093" y1="470.5882352941177" x2="218.1818181818182" y2="543.3155080213904"></line><line x1="363.6363636363637" y1="470.5882352941177" x2="290.90909090909093" y2="543.3155080213904"></line><line x1="436.36363636363643" y1="470.5882352941177" x2="363.6363636363637" y2="543.3155080213904"></line><line x1="509.0909090909092" y1="470.5882352941177" x2="436.36363636363643" y2="543.3155080213904"></line><line x1="581.8181818181819" y1="470.5882352941177" x2="509.0909090909092" y2="543.3155080213904"></line><line x1="654.5454545454546" y1="470.5882352941177" x2="581.8181818181819" y2="543.3155080213904"></line><line x1="727.2727272727274" y1="470.5882352941177" x2="654.5454545454546" y2="543.3155080213904"></line><line x1="800.0000000000001" y1="470.5882352941177" x2="727.2727272727274" y2="543.3155080213904"></line><line x1="872.7272727272729" y1="470.5882352941177" x2="800.0000000000001" y2="543.3155080213904"></line><line x1="72.72727272727273" y1="517.6470588235295" x2="0" y2="590.3743315508023"></line><line x1="145.45454545454547" y1="517.6470588235295" x2="72.72727272727273" y2="590.3743315508023"></line><line x1="218.1818181818182" y1="517.6470588235295" x2="145.45454545454547" y2="590.3743315508023"></line><line x1="290.90909090909093" y1="517.6470588235295" x2="218.1818181818182" y2="590.3743315508023"></line><line x1="363.6363636363637" y1="517.6470588235295" x2="290.90909090909093" y2="590.3743315508023"></line><line x1="436.36363636363643" y1="517.6470588235295" x2="363.6363636363637" y2="590.3743315508023"></line><line x1="509.0909090909092" y1="517.6470588235295" x2="436.36363636363643" y2="590.3743315508023"></line><line x1="581.8181818181819" y1="517.6470588235295" x2="509.0909090909092" y2="590.3743315508023"></line><line x1="654.5454545454546" y1="517.6470588235295" x2="581.8181818181819" y2="590.3743315508023"></line><line x1="727.2727272727274" y1="517.6470588235295" x2="654.5454545454546" y2="590.3743315508023"></line><line x1="800.0000000000001" y1="517.6470588235295" x2="727.2727272727274" y2="590.3743315508023"></line><line x1="872.7272727272729" y1="517.6470588235295" x2="800.0000000000001" y2="590.3743315508023"></line><line x1="72.72727272727273" y1="564.7058823529412" x2="0" y2="637.433155080214"></line><line x1="145.45454545454547" y1="564.7058823529412" x2="72.72727272727273" y2="637.433155080214"></line><line x1="218.1818181818182" y1="564.7058823529412" x2="145.45454545454547" y2="637.433155080214"></line><line x1="290.90909090909093" y1="564.7058823529412" x2="218.1818181818182" y2="637.433155080214"></line><line x1="363.6363636363637" y1="564.7058823529412" x2="290.90909090909093" y2="637.433155080214"></line><line x1="436.36363636363643" y1="564.7058823529412" x2="363.6363636363637" y2="637.433155080214"></line><line x1="509.0909090909092" y1="564.7058823529412" x2="436.36363636363643" y2="637.433155080214"></line><line x1="581.8181818181819" y1="564.7058823529412" x2="509.0909090909092" y2="637.433155080214"></line><line x1="654.5454545454546" y1="564.7058823529412" x2="581.8181818181819" y2="637.433155080214"></line><line x1="727.2727272727274" y1="564.7058823529412" x2="654.5454545454546" y2="637.433155080214"></line><line x1="800.0000000000001" y1="564.7058823529412" x2="727.2727272727274" y2="637.433155080214"></line><line x1="872.7272727272729" y1="564.7058823529412" x2="800.0000000000001" y2="637.433155080214"></line><line x1="72.72727272727273" y1="611.7647058823529" x2="0" y2="684.4919786096257"></line><line x1="145.45454545454547" y1="611.7647058823529" x2="72.72727272727273" y2="684.4919786096257"></line><line x1="218.1818181818182" y1="611.7647058823529" x2="145.45454545454547" y2="684.4919786096257"></line><line x1="290.90909090909093" y1="611.7647058823529" x2="218.1818181818182" y2="684.4919786096257"></line><line x1="363.6363636363637" y1="611.7647058823529" x2="290.90909090909093" y2="684.4919786096257"></line><line x1="436.36363636363643" y1="611.7647058823529" x2="363.6363636363637" y2="684.4919786096257"></line><line x1="509.0909090909092" y1="611.7647058823529" x2="436.36363636363643" y2="684.4919786096257"></line><line x1="581.8181818181819" y1="611.7647058823529" x2="509.0909090909092" y2="684.4919786096257"></line><line x1="654.5454545454546" y1="611.7647058823529" x2="581.8181818181819" y2="684.4919786096257"></line><line x1="727.2727272727274" y1="611.7647058823529" x2="654.5454545454546" y2="684.4919786096257"></line><line x1="800.0000000000001" y1="611.7647058823529" x2="727.2727272727274" y2="684.4919786096257"></line><line x1="872.7272727272729" y1="611.7647058823529" x2="800.0000000000001" y2="684.4919786096257"></line><line x1="72.72727272727273" y1="658.8235294117646" x2="0" y2="731.5508021390374"></line><line x1="145.45454545454547" y1="658.8235294117646" x2="72.72727272727273" y2="731.5508021390374"></line><line x1="218.1818181818182" y1="658.8235294117646" x2="145.45454545454547" y2="731.5508021390374"></line><line x1="290.90909090909093" y1="658.8235294117646" x2="218.1818181818182" y2="731.5508021390374"></line><line x1="363.6363636363637" y1="658.8235294117646" x2="290.90909090909093" y2="731.5508021390374"></line><line x1="436.36363636363643" y1="658.8235294117646" x2="363.6363636363637" y2="731.5508021390374"></line><line x1="509.0909090909092" y1="658.8235294117646" x2="436.36363636363643" y2="731.5508021390374"></line><line x1="581.8181818181819" y1="658.8235294117646" x2="509.0909090909092" y2="731.5508021390374"></line><line x1="654.5454545454546" y1="658.8235294117646" x2="581.8181818181819" y2="731.5508021390374"></line><line x1="727.2727272727274" y1="658.8235294117646" x2="654.5454545454546" y2="731.5508021390374"></line><line x1="800.0000000000001" y1="658.8235294117646" x2="727.2727272727274" y2="731.5508021390374"></line><line x1="872.7272727272729" y1="658.8235294117646" x2="800.0000000000001" y2="731.5508021390374"></line><line x1="72.72727272727273" y1="705.8823529411764" x2="0" y2="778.6096256684491"></line><line x1="145.45454545454547" y1="705.8823529411764" x2="72.72727272727273" y2="778.6096256684491"></line><line x1="218.1818181818182" y1="705.8823529411764" x2="145.45454545454547" y2="778.6096256684491"></line><line x1="290.90909090909093" y1="705.8823529411764" x2="218.1818181818182" y2="778.6096256684491"></line><line x1="363.6363636363637" y1="705.8823529411764" x2="290.90909090909093" y2="778.6096256684491"></line><line x1="436.36363636363643" y1="705.8823529411764" x2="363.6363636363637" y2="778.6096256684491"></line><line x1="509.0909090909092" y1="705.8823529411764" x2="436.36363636363643" y2="778.6096256684491"></line><line x1="581.8181818181819" y1="705.8823529411764" x2="509.0909090909092" y2="778.6096256684491"></line><line x1="654.5454545454546" y1="705.8823529411764" x2="581.8181818181819" y2="778.6096256684491"></line><line x1="727.2727272727274" y1="705.8823529411764" x2="654.5454545454546" y2="778.6096256684491"></line><line x1="800.0000000000001" y1="705.8823529411764" x2="727.2727272727274" y2="778.6096256684491"></line><line x1="872.7272727272729" y1="705.8823529411764" x2="800.0000000000001" y2="778.6096256684491"></line><line x1="72.72727272727273" y1="752.9411764705881" x2="0" y2="825.6684491978608"></line><line x1="145.45454545454547" y1="752.9411764705881" x2="72.72727272727273" y2="825.6684491978608"></line><line x1="218.1818181818182" y1="752.9411764705881" x2="145.45454545454547" y2="825.6684491978608"></line><line x1="290.90909090909093" y1="752.9411764705881" x2="218.1818181818182" y2="825.6684491978608"></line><line x1="363.6363636363637" y1="752.9411764705881" x2="290.90909090909093" y2="825.6684491978608"></line><line x1="436.36363636363643" y1="752.9411764705881" x2="363.6363636363637" y2="825.6684491978608"></line><line x1="509.0909090909092" y1="752.9411764705881" x2="436.36363636363643" y2="825.6684491978608"></line><line x1="581.8181818181819" y1="752.9411764705881" x2="509.0909090909092" y2="825.6684491978608"></line><line x1="654.5454545454546" y1="752.9411764705881" x2="581.8181818181819" y2="825.6684491978608"></line><line x1="727.2727272727274" y1="752.9411764705881" x2="654.5454545454546" y2="825.6684491978608"></line><line x1="800.0000000000001" y1="752.9411764705881" x2="727.2727272727274" y2="825.6684491978608"></line><line x1="872.7272727272729" y1="752.9411764705881" x2="800.0000000000001" y2="825.6684491978608"></line><line x1="72.72727272727273" y1="799.9999999999998" x2="0" y2="872.7272727272725"></line><line x1="145.45454545454547" y1="799.9999999999998" x2="72.72727272727273" y2="872.7272727272725"></line><line x1="218.1818181818182" y1="799.9999999999998" x2="145.45454545454547" y2="872.7272727272725"></line><line x1="290.90909090909093" y1="799.9999999999998" x2="218.1818181818182" y2="872.7272727272725"></line><line x1="363.6363636363637" y1="799.9999999999998" x2="290.90909090909093" y2="872.7272727272725"></line><line x1="436.36363636363643" y1="799.9999999999998" x2="363.6363636363637" y2="872.7272727272725"></line><line x1="509.0909090909092" y1="799.9999999999998" x2="436.36363636363643" y2="872.7272727272725"></line><line x1="581.8181818181819" y1="799.9999999999998" x2="509.0909090909092" y2="872.7272727272725"></line><line x1="654.5454545454546" y1="799.9999999999998" x2="581.8181818181819" y2="872.7272727272725"></line><line x1="727.2727272727274" y1="799.9999999999998" x2="654.5454545454546" y2="872.7272727272725"></line><line x1="800.0000000000001" y1="799.9999999999998" x2="727.2727272727274" y2="872.7272727272725"></line><line x1="872.7272727272729" y1="799.9999999999998" x2="800.0000000000001" y2="872.7272727272725"></line></g></svg>